# xmcd database file
#
# Track frame offsets:
# 182
# 10597
# 21655
# 32867
# 43707
# 54657
# 67222
# 79787
# 95197
# 105072
# 117972
# 129642
# 142990
# 156472
# 172237
# 183612
# 197730
# 210125
# 222010
# 235837
# 246677
# 257360
# 269932
# 283270
# 295390
# 310605
#
# Disc length: 4437 seconds
#
# Revision: 3
# Processed by: cddbd v1.4PL0 Copyright (c) Steve Scherf et al.
# Submitted via: CD-Runner 2004.01
#
DISCID=9411531a
DTITLE=Howlin' Wolf (Chester Arthur Burnett) - Red Rooster
DYEAR=1900
DGENRE=Blues
TTITLE0=Shake For Me
TTITLE1=Red Rooster
TTITLE2=You'll Be Mine
TTITLE3=Who's Been Talkin'
TTITLE4=Wang Dang Doodle
TTITLE5=Little Baby
TTITLE6=Spoonful
TTITLE7=Goin' Down Slow
TTITLE8=Down In The Bottom
TTITLE9=Back Door Man
TTITLE10=Howlin' For My Baby
TTITLE11=Tell Me
TTITLE12=My Baby Walked Off
TTITLE13=Killing Floor
TTITLE14=Country Sugar Mama
TTITLE15=My Life
TTITLE16=Goin' Back Home
TTITLE17=Louise
TTITLE18=Highway 49
TTITLE19=Hold Onto Your Money
TTITLE20=Built For Comfort
TTITLE21=Ain't Superstitious
TTITLE22=My Last Affair
TTITLE23=Dorothy Mae
TTITLE24=Commit A Crime
TTITLE25=Moanin' At Midnight
EXTD=
EXTT0=
EXTT1=
EXTT2=
EXTT3=
EXTT4=
EXTT5=
EXTT6=
EXTT7=
EXTT8=
EXTT9=
EXTT10=
EXTT11=
EXTT12=
EXTT13=
EXTT14=
EXTT15=
EXTT16=
EXTT17=
EXTT18=
EXTT19=
EXTT20=
EXTT21=
EXTT22=
EXTT23=
EXTT24=
EXTT25=
PLAYORDER=
